<svg width="current" height="current" viewBox="0 0 1182 361" fill="none" xmlns="http://www.w3.org/2000/svg">
<g clip-path="url(#clip0_2041_4009)">
<path d="M242.226 53.9421H385.741V360.996H242.226V182.158C242.226 161.409 217.753 151.451 192.871 151.451C160.523 151.451 145.169 166.797 145.169 182.158C145.169 199.584 160.508 213.685 192.871 213.685C216.099 213.685 236.006 205.807 241.817 187.122L208.635 311.194C190.382 315.338 172.555 317.418 155.547 317.418C70.5058 317.433 0 268.056 0 182.993C0 97.9306 75.4823 47.7188 148.492 47.7188C182.508 47.7188 215.675 58.511 241.392 80.0802C241.801 80.49 242.226 80.0802 242.226 79.6704V53.9421Z" fill="#2C5AFF"/>
<path d="M634.552 317.433C604.268 317.433 569.432 309.555 546.613 294.194C546.203 293.784 545.779 294.194 545.779 294.604V360.996H402.264V53.9421H545.779V182.993C545.779 203.743 570.252 213.7 595.134 213.7C627.482 213.7 642.836 198.354 642.836 182.993C642.836 165.568 627.497 151.451 595.134 151.451C571.905 151.451 551.999 159.329 546.188 178.014L579.37 53.9421C597.622 49.7831 615.45 47.7188 632.458 47.7188C717.484 47.7188 787.99 97.0957 787.99 182.158C787.99 267.221 712.917 317.433 634.522 317.433H634.552Z" fill="#2C5AFF"/>
<path d="M1038.5 178.018C1038.5 157.269 1014.03 147.311 989.144 147.311C956.797 147.311 941.443 162.657 941.443 178.018C941.443 195.444 956.782 209.56 989.144 209.56C1012.37 209.56 1032.28 201.682 1038.09 182.997L1004.91 311.213C987.081 315.782 972.971 317.437 951.821 317.437C866.795 317.437 796.289 268.06 796.289 182.997C796.289 91.3011 875.094 47.7225 952.245 47.7225C984.183 47.7225 1020.26 53.9458 1037.7 72.2061C1038.11 72.6159 1038.53 72.2061 1038.53 71.7962V0H1182.05V311.213H1038.53V178.018H1038.5Z" fill="#2C5AFF"/>
</g>
<defs>
<clipPath id="clip0_2041_4009">
<rect width="1182" height="361" fill="white"/>
</clipPath>
</defs>
</svg>
