<svg width="current" height="current" viewBox="0 0 12 12" fill="none" xmlns="http://www.w3.org/2000/svg">
<path d="M10.8125 1.91667C10.8125 1.51396 10.486 1.1875 10.0833 1.1875H1.91667C1.51396 1.1875 1.1875 1.51396 1.1875 1.91667V10.0833C1.1875 10.486 1.51396 10.8125 1.91667 10.8125H10.0833C10.486 10.8125 10.8125 10.486 10.8125 10.0833V1.91667ZM11.6875 10.0833C11.6875 10.9693 10.9693 11.6875 10.0833 11.6875H1.91667C1.03071 11.6875 0.3125 10.9693 0.3125 10.0833V1.91667C0.3125 1.03071 1.03071 0.3125 1.91667 0.3125H10.0833C10.9693 0.3125 11.6875 1.03071 11.6875 1.91667V10.0833Z" fill="#252525"/>
<path d="M4.39583 3.95833C4.39583 3.71671 4.19996 3.52083 3.95833 3.52083C3.71671 3.52083 3.52083 3.71671 3.52083 3.95833C3.52083 4.19996 3.71671 4.39583 3.95833 4.39583C4.19996 4.39583 4.39583 4.19996 4.39583 3.95833ZM5.27083 3.95833C5.27083 4.68321 4.68321 5.27083 3.95833 5.27083C3.23346 5.27083 2.64583 4.68321 2.64583 3.95833C2.64583 3.23346 3.23346 2.64583 3.95833 2.64583C4.68321 2.64583 5.27083 3.23346 5.27083 3.95833Z" fill="#252525"/>
<path d="M8.05705 4.49381C8.22889 4.35363 8.48247 4.36382 8.64266 4.52401L11.5593 7.44067L11.5895 7.47371C11.7297 7.64555 11.7195 7.89914 11.5593 8.05933C11.3991 8.21951 11.1456 8.2297 10.9737 8.08952L10.9407 8.05933L8.33333 5.45199L2.22599 11.5593C2.05514 11.7302 1.7782 11.7302 1.60734 11.5593C1.43649 11.3885 1.43649 11.1115 1.60734 10.9407L8.02401 4.52401L8.05705 4.49381Z" fill="#252525"/>
</svg>
