<svg xmlns="http://www.w3.org/2000/svg" width="current" height="current" viewBox="0 0 14 14" fill="none">
<path fill-rule="evenodd" clip-rule="evenodd" d="M9.62635 3.4974H4.37635V2.33073C4.37635 2.16965 4.50694 2.03906 4.66802 2.03906H9.33469C9.49577 2.03906 9.62635 2.16965 9.62635 2.33073V3.4974ZM10.5014 3.4974V2.33073C10.5014 1.6864 9.97902 1.16406 9.33469 1.16406H4.66802C4.02369 1.16406 3.50135 1.6864 3.50135 2.33073V3.4974H2.91797V4.3724V11.6641C2.91797 12.3084 3.4403 12.8307 4.08464 12.8307H9.91797C10.5623 12.8307 11.0846 12.3084 11.0846 11.6641V4.3724V3.4974H10.5014ZM3.79297 4.37923H4.37635H9.62635H10.2096V11.6641C10.2096 11.8251 10.0791 11.9557 9.91797 11.9557H4.08464C3.92355 11.9557 3.79297 11.8251 3.79297 11.6641V4.37923Z" fill="current"/>
<path fill-rule="evenodd" clip-rule="evenodd" d="M6.125 6.10938C6.36662 6.10938 6.5625 6.30525 6.5625 6.54688V10.0469C6.5625 10.2885 6.36662 10.4844 6.125 10.4844C5.88338 10.4844 5.6875 10.2885 5.6875 10.0469V6.54688C5.6875 6.30525 5.88338 6.10938 6.125 6.10938Z" fill="current"/>
<path fill-rule="evenodd" clip-rule="evenodd" d="M7.875 6.10938C8.11662 6.10938 8.3125 6.30525 8.3125 6.54688V10.0469C8.3125 10.2885 8.11662 10.4844 7.875 10.4844C7.63338 10.4844 7.4375 10.2885 7.4375 10.0469V6.54688C7.4375 6.30525 7.63338 6.10938 7.875 6.10938Z" fill="current"/>
<path fill-rule="evenodd" clip-rule="evenodd" d="M1.89453 3.9375C1.89453 3.69588 2.09041 3.5 2.33203 3.5H11.6654C11.907 3.5 12.1029 3.69588 12.1029 3.9375C12.1029 4.17912 11.907 4.375 11.6654 4.375H2.33203C2.09041 4.375 1.89453 4.17912 1.89453 3.9375Z" fill="current"/>
</svg>