<svg xmlns="http://www.w3.org/2000/svg" width="current" height="current" viewBox="0 0 20 20" fill="none">

<mask id="mask0_2093_10053" style="mask-type:alpha" maskUnits="userSpaceOnUse" x="0" y="0" width="20" height="20">
<rect width="20" height="20" fill="#D9D9D9"/>
</mask>
<g mask="url(#mask0_2093_10053)">
<path d="M12.7096 4.16406C12.418 4.16406 12.1714 4.06337 11.9701 3.86198C11.7687 3.66059 11.668 3.41406 11.668 3.1224C11.668 2.83073 11.7687 2.5842 11.9701 2.38281C12.1714 2.18142 12.418 2.08073 12.7096 2.08073C13.0013 2.08073 13.2478 2.18142 13.4492 2.38281C13.6506 2.5842 13.7513 2.83073 13.7513 3.1224C13.7513 3.41406 13.6506 3.66059 13.4492 3.86198C13.2478 4.06337 13.0013 4.16406 12.7096 4.16406ZM12.7096 17.9141C12.418 17.9141 12.1714 17.8134 11.9701 17.612C11.7687 17.4106 11.668 17.1641 11.668 16.8724C11.668 16.5807 11.7687 16.3342 11.9701 16.1328C12.1714 15.9314 12.418 15.8307 12.7096 15.8307C13.0013 15.8307 13.2478 15.9314 13.4492 16.1328C13.6506 16.3342 13.7513 16.5807 13.7513 16.8724C13.7513 17.1641 13.6506 17.4106 13.4492 17.612C13.2478 17.8134 13.0013 17.9141 12.7096 17.9141ZM16.043 7.08073C15.7513 7.08073 15.5048 6.98004 15.3034 6.77865C15.102 6.57726 15.0013 6.33073 15.0013 6.03906C15.0013 5.7474 15.102 5.50087 15.3034 5.29948C15.5048 5.09809 15.7513 4.9974 16.043 4.9974C16.3346 4.9974 16.5812 5.09809 16.7826 5.29948C16.9839 5.50087 17.0846 5.7474 17.0846 6.03906C17.0846 6.33073 16.9839 6.57726 16.7826 6.77865C16.5812 6.98004 16.3346 7.08073 16.043 7.08073ZM16.043 14.9974C15.7513 14.9974 15.5048 14.8967 15.3034 14.6953C15.102 14.4939 15.0013 14.2474 15.0013 13.9557C15.0013 13.6641 15.102 13.4175 15.3034 13.2161C15.5048 13.0148 15.7513 12.9141 16.043 12.9141C16.3346 12.9141 16.5812 13.0148 16.7826 13.2161C16.9839 13.4175 17.0846 13.6641 17.0846 13.9557C17.0846 14.2474 16.9839 14.4939 16.7826 14.6953C16.5812 14.8967 16.3346 14.9974 16.043 14.9974ZM17.293 11.0391C17.0013 11.0391 16.7548 10.9384 16.5534 10.737C16.352 10.5356 16.2513 10.2891 16.2513 9.9974C16.2513 9.70573 16.352 9.4592 16.5534 9.25781C16.7548 9.05642 17.0013 8.95573 17.293 8.95573C17.5846 8.95573 17.8312 9.05642 18.0326 9.25781C18.2339 9.4592 18.3346 9.70573 18.3346 9.9974C18.3346 10.2891 18.2339 10.5356 18.0326 10.737C17.8312 10.9384 17.5846 11.0391 17.293 11.0391ZM10.0013 18.3307C8.84852 18.3307 7.76519 18.112 6.7513 17.6745C5.73741 17.237 4.85547 16.6432 4.10547 15.8932C3.35547 15.1432 2.76172 14.2613 2.32422 13.2474C1.88672 12.2335 1.66797 11.1502 1.66797 9.9974C1.66797 8.84462 1.88672 7.76128 2.32422 6.7474C2.76172 5.73351 3.35547 4.85156 4.10547 4.10156C4.85547 3.35156 5.73741 2.75781 6.7513 2.32031C7.76519 1.88281 8.84852 1.66406 10.0013 1.66406V3.33073C8.14019 3.33073 6.5638 3.97656 5.27214 5.26823C3.98047 6.5599 3.33464 8.13628 3.33464 9.9974C3.33464 11.8585 3.98047 13.4349 5.27214 14.7266C6.5638 16.0182 8.14019 16.6641 10.0013 16.6641V18.3307ZM10.0013 11.6641C9.54297 11.6641 9.15061 11.5009 8.82422 11.1745C8.49783 10.8481 8.33464 10.4557 8.33464 9.9974C8.33464 9.92795 8.33811 9.85503 8.34505 9.77865C8.352 9.70226 8.36936 9.62934 8.39714 9.5599L6.66797 7.83073L7.83464 6.66406L9.5638 8.39323C9.61936 8.37934 9.76519 8.35851 10.0013 8.33073C10.4596 8.33073 10.852 8.49392 11.1784 8.82031C11.5048 9.1467 11.668 9.53906 11.668 9.9974C11.668 10.4557 11.5048 10.8481 11.1784 11.1745C10.852 11.5009 10.4596 11.6641 10.0013 11.6641Z" fill="#2C5AFF"/>
</g>
</svg>