<svg width="current" height="current" viewBox="0 0 16 16" fill="none" xmlns="http://www.w3.org/2000/svg">
<path fill-rule="evenodd" clip-rule="evenodd" d="M8.35517 11.6895C8.1599 11.8848 7.84332 11.8848 7.64806 11.6895L4.46608 8.50751C4.27082 8.31225 4.27082 7.99567 4.46608 7.8004C4.66134 7.60514 4.97792 7.60514 5.17319 7.8004L7.50161 10.1288L7.50161 2.66927C7.50161 2.39313 7.72547 2.16927 8.00161 2.16927C8.27776 2.16927 8.50161 2.39313 8.50161 2.66927L8.50161 10.1288L10.83 7.8004C11.0253 7.60514 11.3419 7.60514 11.5371 7.8004C11.7324 7.99567 11.7324 8.31225 11.5371 8.50751L8.35517 11.6895Z" fill="#2C5AFF"/>
<path fill-rule="evenodd" clip-rule="evenodd" d="M4.16797 14C4.16797 13.7239 4.39183 13.5 4.66797 13.5H11.3346C11.6108 13.5 11.8346 13.7239 11.8346 14C11.8346 14.2761 11.6108 14.5 11.3346 14.5H4.66797C4.39183 14.5 4.16797 14.2761 4.16797 14Z" fill="current"/>
</svg>
