<svg xmlns="http://www.w3.org/2000/svg" width="current" height="current" viewBox="0 0 24 24" fill="none">
<path fill-rule="evenodd" clip-rule="evenodd" d="M16.5 10C18.433 10 20 8.433 20 6.5C20 4.567 18.433 3 16.5 3C14.567 3 13 4.567 13 6.5C13 6.67631 13.013 6.84957 13.0382 7.01887L8.15107 9.71478C7.50924 8.97087 6.55961 8.5 5.5 8.5C3.567 8.5 2 10.067 2 12C2 13.933 3.567 15.5 5.5 15.5C6.55383 15.5 7.49888 15.0343 8.14054 14.2974L13.0358 16.9977C13.0122 17.1618 13 17.3295 13 17.5C13 19.433 14.567 21 16.5 21C18.433 21 20 19.433 20 17.5C20 15.567 18.433 14 16.5 14C15.4573 14 14.5211 14.4559 13.8799 15.1793L8.9687 12.4701C8.98934 12.3163 9 12.1594 9 12C9 11.8464 8.9901 11.6951 8.97091 11.5466L13.8907 8.83273C14.5316 9.54912 15.4631 10 16.5 10Z" fill="current"/>
</svg>