<svg xmlns="http://www.w3.org/2000/svg" width="current" height="current" viewBox="0 0 20 20" fill="none">
<path opacity="0.9" fill-rule="evenodd" clip-rule="evenodd" d="M10 2C5.029 2 1 5.13 1 8.989C1.06351 10.2194 1.46382 11.4088 2.15723 12.4272C2.85063 13.4456 3.81048 14.254 4.93201 14.764L3.93201 18.431C3.914 18.5032 3.91832 18.5792 3.9444 18.6489C3.97048 18.7187 4.01708 18.7788 4.07806 18.8215C4.13905 18.8642 4.21157 18.8874 4.28601 18.888C4.36045 18.8886 4.4333 18.8667 4.495 18.825L8.87201 15.925C9.24201 15.961 9.61702 15.982 9.99902 15.982C14.969 15.982 18.999 12.853 18.999 8.993C18.999 5.133 14.969 2.004 9.99902 2.004" fill="current"/>
</svg>